{
  "accessors": [
    {
      "bufferView": 2,
      "componentType": 5126,
      "count": 1032,
      "max": [
        3.035057544708252,
        3.156419277191162,
        17.253585815429688
      ],
      "min": [
        -5.779627799987793,
        -3.892153263092041,
        0.0
      ],
      "type": "VEC3"
    },
    {
      "bufferView": 2,
      "byteOffset": 12384,
      "componentType": 5126,
      "count": 1032,
      "max": [
        1.0,
        1.0,
        1.0
      ],
      "min": [
        -1.0,
        -1.0,
        -1.0
      ],
      "type": "VEC3"
    },
    {
      "bufferView": 3,
      "componentType": 5126,
      "count": 1032,
      "max": [
        1.0,
        1.0,
        1.0,
        1.0
      ],
      "min": [
        -1.0,
        -1.0,
        -1.0,
        1.0
      ],
      "type": "VEC4"
    },
    {
      "bufferView": 1,
      "componentType": 5126,
      "count": 1032,
      "max": [
        0.9991617202758789,
        0.9715502858161926
      ],
      "min": [
        0.0008382910746149719,
        0.0008382910746149719
      ],
      "type": "VEC2"
    },
    {
      "bufferView": 1,
      "byteOffset": 8256,
      "componentType": 5126,
      "count": 1032,
      "max": [
        0.9991617202758789,
        0.9715502858161926
      ],
      "min": [
        0.0008382910746149719,
        0.0008382910746149719
      ],
      "type": "VEC2"
    },
    {
      "bufferView": 1,
      "byteOffset": 16512,
      "componentType": 5126,
      "count": 1032,
      "max": [
        0.9991617202758789,
        0.9715502858161926
      ],
      "min": [
        0.0008382910746149719,
        0.0008382910746149719
      ],
      "type": "VEC2"
    },
    {
      "bufferView": 0,
      "componentType": 5125,
      "count": 1698,
      "type": "SCALAR"
    },
    {
      "bufferView": 2,
      "byteOffset": 24768,
      "componentType": 5126,
      "count": 8,
      "max": [
        3.035057544708252,
        2.802647590637207,
        9.195392608642578
      ],
      "min": [
        3.035057544708252,
        -3.5383763313293457,
        4.2557806968688965
      ],
      "type": "VEC3"
    },
    {
      "bufferView": 2,
      "byteOffset": 24864,
      "componentType": 5126,
      "count": 8,
      "max": [
        1.0,
        0.0,
        0.0
      ],
      "min": [
        1.0,
        0.0,
        0.0
      ],
      "type": "VEC3"
    },
    {
      "bufferView": 1,
      "byteOffset": 24768,
      "componentType": 5126,
      "count": 8,
      "max": [
        3.155618906021118,
        0.99717116355896
      ],
      "min": [
        0.003877311944961548,
        0.5301468372344971
      ],
      "type": "VEC2"
    },
    {
      "bufferView": 0,
      "byteOffset": 6792,
      "componentType": 5125,
      "count": 12,
      "type": "SCALAR"
    }
  ],
  "asset": {
    "extras": {
      "author": "Shahalam(Rihuwa Midori) (https://sketchfab.com/rihuwamidorikuro)",
      "license": "CC-BY-4.0 (http://creativecommons.org/licenses/by/4.0/)",
      "source": "https://sketchfab.com/3d-models/indian-style-building-4066feb6fe1240e2b6f3710f243d5031",
      "title": "Indian Style Building"
    },
    "generator": "Sketchfab-16.60.0",
    "version": "2.0"
  },
  "bufferViews": [
    {
      "buffer": 0,
      "byteLength": 6840,
      "name": "floatBufferViews",
      "target": 34963
    },
    {
      "buffer": 0,
      "byteLength": 24832,
      "byteOffset": 6840,
      "byteStride": 8,
      "name": "floatBufferViews",
      "target": 34962
    },
    {
      "buffer": 0,
      "byteLength": 24960,
      "byteOffset": 31672,
      "byteStride": 12,
      "name": "floatBufferViews",
      "target": 34962
    },
    {
      "buffer": 0,
      "byteLength": 16512,
      "byteOffset": 56632,
      "byteStride": 16,
      "name": "floatBufferViews",
      "target": 34962
    }
  ],
  "buffers": [
    {
      "byteLength": 73144,
      "uri": "scene.bin"
    }
  ],
  "images": [
    {
      "uri": "textures/Yellow_Building_Baked_baseColor.png"
    },
    {
      "uri": "textures/Yellow_Building_Baked_normal.png"
    },
    {
      "uri": "textures/Park_Metal_Fence_baseColor.png"
    }
  ],
  "materials": [
    {
      "doubleSided": true,
      "name": "Yellow_Building_Baked",
      "normalTexture": {
        "index": 1
      },
      "pbrMetallicRoughness": {
        "baseColorTexture": {
          "index": 0
        },
        "metallicFactor": 0.0,
        "roughnessFactor": 0.8211145618000169
      }
    },
    {
      "doubleSided": true,
      "name": "Park_Metal_Fence",
      "pbrMetallicRoughness": {
        "baseColorTexture": {
          "index": 2
        },
        "metallicFactor": 0.0
      }
    }
  ],
  "meshes": [
    {
      "name": "Yellow_Building_Yellow_Building_Baked_0",
      "primitives": [
        {
          "attributes": {
            "NORMAL": 1,
            "POSITION": 0,
            "TANGENT": 2,
            "TEXCOORD_0": 3,
            "TEXCOORD_1": 4,
            "TEXCOORD_2": 5
          },
          "indices": 6,
          "material": 0,
          "mode": 4
        }
      ]
    },
    {
      "name": "Yellow_Building_Park_Metal_Fence_0",
      "primitives": [
        {
          "attributes": {
            "NORMAL": 8,
            "POSITION": 7,
            "TEXCOORD_0": 9
          },
          "indices": 10,
          "material": 1,
          "mode": 4
        }
      ]
    }
  ],
  "nodes": [
    {
      "children": [
        1
      ],
      "matrix": [
        1.0,
        0.0,
        0.0,
        0.0,
        0.0,
        2.220446049250313e-16,
        -1.0,
        0.0,
        0.0,
        1.0,
        2.220446049250313e-16,
        0.0,
        0.0,
        0.0,
        0.0,
        1.0
      ],
      "name": "Sketchfab_model"
    },
    {
      "children": [
        2
      ],
      "matrix": [
        0.009999999776482582,
        0.0,
        0.0,
        0.0,
        0.0,
        0.0,
        0.009999999776482582,
        0.0,
        0.0,
        -0.009999999776482582,
        0.0,
        0.0,
        0.0,
        0.0,
        0.0,
        1.0
      ],
      "name": "d371087e5dc44ab7ada4c6941eb4fcce.fbx"
    },
    {
      "children": [
        3
      ],
      "name": "RootNode"
    },
    {
      "children": [
        4,
        5
      ],
      "matrix": [
        75.89078484060235,
        5.551115123125783e-15,
        -65.11980325736099,
        0.0,
        -65.11980325736093,
        -4.371139006309477e-06,
        -75.89078484060228,
        0.0,
        -2.8464771206770934e-06,
        99.99999999999991,
        -3.3172916857893142e-06,
        0.0,
        0.0,
        0.0,
        0.0,
        1.0
      ],
      "name": "Yellow_Building"
    },
    {
      "mesh": 0,
      "name": "Yellow_Building_Yellow_Building_Baked_0"
    },
    {
      "mesh": 1,
      "name": "Yellow_Building_Park_Metal_Fence_0"
    }
  ],
  "samplers": [
    {
      "magFilter": 9729,
      "minFilter": 9987,
      "wrapS": 10497,
      "wrapT": 10497
    }
  ],
  "scene": 0,
  "scenes": [
    {
      "name": "Sketchfab_Scene",
      "nodes": [
        0
      ]
    }
  ],
  "textures": [
    {
      "sampler": 0,
      "source": 0
    },
    {
      "sampler": 0,
      "source": 1
    },
    {
      "sampler": 0,
      "source": 2
    }
  ]
}
